<svg xmlns="http://www.w3.org/2000/svg" xmlns:xlink="http://www.w3.org/1999/xlink" width="100" zoomAndPan="magnify" viewBox="0 0 75 74.999997" height="100" preserveAspectRatio="xMidYMid meet" version="1.0"><defs><clipPath id="af1f9bc11b"><path d="M 3.5625 0 L 71.8125 0 L 71.8125 75 L 3.5625 75 Z M 3.5625 0 " clip-rule="nonzero"/></clipPath><clipPath id="66f2ac3534"><path d="M 3.5625 0 L 71 0 L 71 56 L 3.5625 56 Z M 3.5625 0 " clip-rule="nonzero"/></clipPath><clipPath id="0ddab9758b"><path d="M 36 18 L 71.8125 18 L 71.8125 57 L 36 57 Z M 36 18 " clip-rule="nonzero"/></clipPath></defs><g clip-path="url(#af1f9bc11b)"><path fill="#00549d" d="M 35.726562 0.6875 C 36.941406 0.0078125 38.433594 0.0078125 39.644531 0.6875 C 45.640625 4.03125 63.683594 14.105469 69.679688 17.453125 C 70.894531 18.128906 71.640625 19.378906 71.640625 20.734375 C 71.640625 27.425781 71.640625 47.570312 71.640625 54.265625 C 71.640625 55.617188 70.894531 56.871094 69.679688 57.546875 C 63.6875 60.894531 45.644531 70.96875 39.644531 74.3125 C 38.433594 74.992188 36.9375 74.992188 35.726562 74.3125 C 29.730469 70.96875 11.6875 60.894531 5.691406 57.546875 C 4.480469 56.871094 3.734375 55.621094 3.734375 54.265625 C 3.734375 47.574219 3.734375 27.429688 3.734375 20.734375 C 3.734375 19.382812 4.480469 18.128906 5.695312 17.453125 C 11.6875 14.105469 29.734375 4.03125 35.726562 0.6875 Z M 35.726562 0.6875 " fill-opacity="1" fill-rule="evenodd"/></g><g clip-path="url(#66f2ac3534)"><path fill="#0086d4" d="M 4.277344 55.992188 C 3.800781 55.359375 3.734375 54.757812 3.734375 53.949219 C 3.734375 47.292969 3.734375 27.265625 3.734375 20.609375 C 3.734375 19.261719 4.476562 18.019531 5.6875 17.347656 C 11.664062 14.019531 29.644531 4.003906 35.617188 0.675781 C 36.828125 0 38.464844 0.015625 39.675781 0.691406 C 45.652344 4.015625 63.570312 13.945312 69.546875 17.273438 C 70.027344 17.542969 70.394531 17.867188 70.726562 18.296875 Z M 4.277344 55.992188 " fill-opacity="1" fill-rule="evenodd"/></g><path fill="#ffffff" d="M 37.6875 12.617188 C 51.496094 12.617188 62.707031 23.765625 62.707031 37.5 C 62.707031 51.234375 51.496094 62.382812 37.6875 62.382812 C 23.878906 62.382812 12.667969 51.234375 12.667969 37.5 C 12.667969 23.765625 23.878906 12.617188 37.6875 12.617188 Z M 37.6875 25.058594 C 44.589844 25.058594 50.195312 30.632812 50.195312 37.5 C 50.195312 44.367188 44.589844 49.941406 37.6875 49.941406 C 30.785156 49.941406 25.179688 44.367188 25.179688 37.5 C 25.179688 30.632812 30.78125 25.058594 37.6875 25.058594 Z M 37.6875 25.058594 " fill-opacity="1" fill-rule="evenodd"/><g clip-path="url(#0ddab9758b)"><path fill="#0075c0" d="M 70.722656 18.316406 C 71.644531 19.171875 71.625 20.46875 71.625 21.484375 C 71.625 28.230469 71.570312 47.414062 71.640625 54.15625 C 71.648438 54.863281 71.414062 55.601562 71.066406 56.160156 L 36.960938 37.5 Z M 70.722656 18.316406 " fill-opacity="1" fill-rule="evenodd"/></g><path fill="#ffffff" d="M 50.195312 32.167969 L 53.769531 32.167969 L 53.769531 42.832031 L 50.195312 42.832031 Z M 62.707031 32.167969 L 66.28125 32.167969 L 66.28125 42.832031 L 62.707031 42.832031 Z M 62.707031 32.167969 " fill-opacity="1" fill-rule="evenodd"/><path fill="#ffffff" d="M 46.621094 35.722656 L 57.34375 35.722656 L 57.34375 39.277344 L 46.621094 39.277344 Z M 59.132812 35.722656 L 69.855469 35.722656 L 69.855469 39.277344 L 59.132812 39.277344 Z M 59.132812 35.722656 " fill-opacity="1" fill-rule="evenodd"/></svg>