<svg xmlns="http://www.w3.org/2000/svg" xmlns:xlink="http://www.w3.org/1999/xlink" width="100" zoomAndPan="magnify" viewBox="0 0 75 74.999997" height="100" preserveAspectRatio="xMidYMid meet" version="1.0"><path fill="#ffffff" d="M 37.515625 0.0273438 C 16.792969 0.0273438 0 16.882812 0 37.679688 C 0 56.359375 13.578125 71.875 31.34375 74.808594 L 31.34375 49.285156 L 21.796875 49.285156 L 21.796875 38.101562 L 31.34375 38.101562 L 31.34375 29.984375 C 31.34375 21.183594 38.457031 15.21875 47.226562 15.21875 C 51.125 15.21875 53.5625 15.804688 53.5625 15.804688 L 53.5625 25.195312 L 47.226562 25.195312 C 44.597656 25.195312 42.453125 27.34375 42.453125 29.984375 L 42.453125 38.101562 L 52.683594 38.101562 L 51.257812 49.285156 L 42.453125 49.285156 L 42.453125 74.972656 C 60.804688 72.527344 74.96875 56.75 74.96875 37.679688 C 75 16.882812 58.207031 0.0273438 37.515625 0.0273438 Z M 37.515625 0.0273438 " fill-opacity="1" fill-rule="nonzero"/></svg>