<svg xmlns="http://www.w3.org/2000/svg" xmlns:xlink="http://www.w3.org/1999/xlink" width="100" zoomAndPan="magnify" viewBox="0 0 75 74.999997" height="100" preserveAspectRatio="xMidYMid meet" version="1.0"><path fill="#ffffff" d="M 37.484375 6.761719 C 47.492188 6.761719 48.675781 6.796875 52.632812 6.976562 C 56.28125 7.140625 58.269531 7.75 59.601562 8.273438 C 61.34375 8.949219 62.59375 9.769531 63.90625 11.085938 C 65.222656 12.398438 66.027344 13.648438 66.71875 15.390625 C 67.226562 16.703125 67.835938 18.691406 68.015625 22.355469 C 68.195312 26.316406 68.230469 27.5 68.230469 37.507812 C 68.230469 47.515625 68.195312 48.699219 68.015625 52.660156 C 67.851562 56.308594 67.242188 58.296875 66.71875 59.628906 C 66.042969 61.367188 65.222656 62.617188 63.90625 63.933594 C 62.59375 65.246094 61.34375 66.050781 59.601562 66.742188 C 58.289062 67.25 56.300781 67.859375 52.632812 68.039062 C 48.675781 68.222656 47.492188 68.253906 37.484375 68.253906 C 27.476562 68.253906 26.292969 68.222656 22.332031 68.039062 C 18.683594 67.875 16.695312 67.269531 15.363281 66.742188 C 13.621094 66.070312 12.375 65.246094 11.058594 63.933594 C 9.746094 62.617188 8.941406 61.367188 8.25 59.628906 C 7.738281 58.3125 7.132812 56.324219 6.949219 52.660156 C 6.769531 48.699219 6.738281 47.515625 6.738281 37.507812 C 6.738281 27.5 6.769531 26.316406 6.949219 22.355469 C 7.117188 18.707031 7.722656 16.71875 8.25 15.390625 C 8.921875 13.648438 9.746094 12.398438 11.058594 11.085938 C 12.375 9.769531 13.621094 8.964844 15.363281 8.273438 C 16.679688 7.765625 18.667969 7.15625 22.332031 6.976562 C 26.292969 6.796875 27.476562 6.761719 37.484375 6.761719 M 37.484375 0.0078125 C 27.296875 0.0078125 26.03125 0.0585938 22.019531 0.238281 C 18.027344 0.417969 15.300781 1.058594 12.917969 1.980469 C 10.453125 2.933594 8.363281 4.214844 6.277344 6.300781 C 4.207031 8.390625 2.925781 10.476562 1.972656 12.941406 C 1.050781 15.324219 0.410156 18.050781 0.230469 22.042969 C 0.0507812 26.039062 0 27.320312 0 37.492188 C 0 47.679688 0.0507812 48.945312 0.230469 52.957031 C 0.410156 56.949219 1.050781 59.675781 1.972656 62.058594 C 2.925781 64.523438 4.207031 66.609375 6.292969 68.699219 C 8.378906 70.785156 10.46875 72.066406 12.933594 73.019531 C 15.316406 73.941406 18.042969 74.582031 22.035156 74.761719 C 26.03125 74.941406 27.3125 74.992188 37.5 74.992188 C 47.6875 74.992188 48.953125 74.941406 52.964844 74.761719 C 56.957031 74.582031 59.683594 73.941406 62.066406 73.019531 C 64.53125 72.066406 66.621094 70.785156 68.707031 68.699219 C 70.792969 66.609375 72.074219 64.523438 73.027344 62.058594 C 73.949219 59.675781 74.589844 56.949219 74.769531 52.957031 C 74.949219 48.960938 75 47.679688 75 37.492188 C 75 27.304688 74.949219 26.039062 74.769531 22.027344 C 74.589844 18.035156 73.949219 15.308594 73.027344 12.925781 C 72.074219 10.460938 70.792969 8.371094 68.707031 6.285156 C 66.621094 4.199219 64.53125 2.917969 62.066406 1.964844 C 59.683594 1.042969 56.957031 0.402344 52.964844 0.222656 C 48.953125 0.0585938 47.671875 0.0078125 37.484375 0.0078125 " fill-opacity="1" fill-rule="nonzero"/><path fill="#ffffff" d="M 37.484375 18.25 C 26.851562 18.25 18.242188 26.859375 18.242188 37.492188 C 18.242188 48.125 26.867188 56.75 37.5 56.75 C 48.132812 56.75 56.757812 48.140625 56.757812 37.492188 C 56.742188 26.859375 48.117188 18.25 37.484375 18.25 M 37.484375 49.996094 C 30.582031 49.996094 24.996094 44.410156 24.996094 37.507812 C 24.996094 30.605469 30.582031 25.019531 37.484375 25.019531 C 44.386719 25.019531 49.972656 30.605469 49.972656 37.507812 C 49.988281 44.394531 44.386719 49.996094 37.484375 49.996094 " fill-opacity="1" fill-rule="nonzero"/><path fill="#ffffff" d="M 62 17.492188 C 62 19.972656 59.980469 21.996094 57.5 21.996094 C 55.015625 21.996094 52.996094 19.972656 52.996094 17.492188 C 52.996094 15.011719 55.015625 12.992188 57.5 12.992188 C 59.980469 12.992188 62 14.996094 62 17.492188 " fill-opacity="1" fill-rule="nonzero"/></svg>