<svg xmlns="http://www.w3.org/2000/svg" xmlns:xlink="http://www.w3.org/1999/xlink" width="100" zoomAndPan="magnify" viewBox="0 0 75 74.999997" height="100" preserveAspectRatio="xMidYMid meet" version="1.0"><rect x="-7.5" width="90" fill="#f7df1e" y="-7.5" height="89.999996" fill-opacity="1"/><path fill="#000000" d="M 19.71875 62.675781 L 25.460938 59.203125 C 26.566406 61.164062 27.574219 62.828125 29.992188 62.828125 C 32.304688 62.828125 33.765625 61.917969 33.765625 58.398438 L 33.765625 34.433594 L 40.8125 34.433594 L 40.8125 58.496094 C 40.8125 65.792969 36.535156 69.121094 30.292969 69.121094 C 24.652344 69.121094 21.382812 66.199219 19.71875 62.675781 " fill-opacity="1" fill-rule="nonzero"/><path fill="#000000" d="M 44.640625 61.917969 L 50.382812 58.597656 C 51.894531 61.0625 53.855469 62.875 57.328125 62.875 C 60.25 62.875 62.113281 61.417969 62.113281 59.402344 C 62.113281 56.984375 60.199219 56.128906 56.976562 54.71875 L 55.214844 53.964844 C 50.128906 51.800781 46.757812 49.082031 46.757812 43.34375 C 46.757812 38.058594 50.785156 34.027344 57.078125 34.027344 C 61.558594 34.027344 64.78125 35.589844 67.09375 39.667969 L 61.609375 43.191406 C 60.402344 41.027344 59.089844 40.171875 57.078125 40.171875 C 55.011719 40.171875 53.703125 41.480469 53.703125 43.191406 C 53.703125 45.308594 55.011719 46.164062 58.035156 47.472656 L 59.792969 48.226562 C 65.785156 50.796875 69.160156 53.410156 69.160156 59.304688 C 69.160156 65.644531 64.175781 69.121094 57.480469 69.121094 C 50.933594 69.121094 46.707031 65.996094 44.640625 61.917969 " fill-opacity="1" fill-rule="nonzero"/></svg>