<svg xmlns="http://www.w3.org/2000/svg" xmlns:xlink="http://www.w3.org/1999/xlink" width="100" zoomAndPan="magnify" viewBox="0 0 75 74.999997" height="100" preserveAspectRatio="xMidYMid meet" version="1.0"><defs><clipPath id="c319c395e6"><path d="M 4.40625 7 L 66 7 L 66 69 L 4.40625 69 Z M 4.40625 7 " clip-rule="nonzero"/></clipPath></defs><g clip-path="url(#c319c395e6)"><path fill="#000000" d="M 50.445312 11.808594 C 30.460938 0.0273438 5.070312 14.417969 4.847656 37.652344 C 4.632812 60.34375 28.574219 74.996094 48.511719 65.011719 L 26.742188 32.890625 L 26.742188 52.773438 C 26.742188 54.976562 22.539062 54.976562 22.539062 52.773438 L 22.539062 26.121094 C 22.539062 24.371094 25.78125 24.226562 26.699219 25.746094 L 51.511719 63.296875 C 70.148438 51.257812 69.898438 23.28125 50.445312 11.808594 Z M 47.640625 49.4375 L 43.425781 42.976562 L 43.425781 25.296875 C 43.425781 23.644531 47.640625 23.644531 47.640625 25.296875 Z M 47.640625 49.4375 " fill-opacity="1" fill-rule="nonzero"/></g></svg>