<svg xmlns="http://www.w3.org/2000/svg" xmlns:xlink="http://www.w3.org/1999/xlink" width="100" zoomAndPan="magnify" viewBox="0 0 75 74.999997" height="100" preserveAspectRatio="xMidYMid meet" version="1.0"><path fill="#00d8ff" d="M 61.609375 25.894531 C 60.835938 25.628906 60.03125 25.375 59.203125 25.132812 C 59.339844 24.574219 59.464844 24.023438 59.578125 23.480469 C 61.398438 14.585938 60.207031 7.417969 56.136719 5.058594 C 52.230469 2.792969 45.847656 5.152344 39.398438 10.792969 C 38.777344 11.335938 38.15625 11.910156 37.535156 12.511719 C 37.121094 12.113281 36.707031 11.730469 36.296875 11.363281 C 29.535156 5.332031 22.761719 2.789062 18.695312 5.15625 C 14.796875 7.425781 13.640625 14.164062 15.28125 22.59375 C 15.441406 23.410156 15.625 24.242188 15.835938 25.085938 C 14.875 25.359375 13.949219 25.652344 13.066406 25.960938 C 5.140625 28.738281 0.0820312 33.089844 0.0820312 37.601562 C 0.0820312 42.261719 5.515625 46.941406 13.765625 49.773438 C 14.417969 50 15.09375 50.210938 15.789062 50.410156 C 15.5625 51.324219 15.367188 52.21875 15.203125 53.09375 C 13.636719 61.378906 14.859375 67.960938 18.75 70.210938 C 22.765625 72.542969 29.511719 70.148438 36.078125 64.378906 C 36.597656 63.925781 37.117188 63.441406 37.636719 62.933594 C 38.316406 63.585938 38.992188 64.207031 39.660156 64.789062 C 46.019531 70.289062 52.304688 72.511719 56.1875 70.25 C 60.203125 67.914062 61.507812 60.847656 59.8125 52.25 C 59.683594 51.589844 59.53125 50.921875 59.367188 50.238281 C 59.839844 50.097656 60.304688 49.953125 60.757812 49.800781 C 69.335938 46.941406 74.917969 42.328125 74.917969 37.601562 C 74.917969 33.074219 69.695312 28.691406 61.609375 25.894531 Z M 59.75 46.753906 C 59.34375 46.886719 58.921875 47.019531 58.496094 47.144531 C 57.546875 44.132812 56.269531 40.929688 54.703125 37.617188 C 56.195312 34.386719 57.425781 31.222656 58.347656 28.230469 C 59.113281 28.453125 59.855469 28.6875 60.570312 28.933594 C 67.496094 31.328125 71.71875 34.875 71.71875 37.601562 C 71.71875 40.507812 67.160156 44.285156 59.75 46.753906 Z M 56.675781 52.871094 C 57.429688 56.675781 57.53125 60.113281 57.035156 62.800781 C 56.59375 65.214844 55.695312 66.824219 54.585938 67.46875 C 52.226562 68.839844 47.183594 67.058594 41.746094 62.351562 C 41.121094 61.8125 40.492188 61.238281 39.863281 60.628906 C 41.972656 58.308594 44.082031 55.617188 46.136719 52.621094 C 49.753906 52.300781 53.171875 51.773438 56.273438 51.054688 C 56.425781 51.671875 56.558594 52.277344 56.675781 52.871094 Z M 25.597656 67.230469 C 23.292969 68.050781 21.457031 68.074219 20.347656 67.429688 C 17.988281 66.0625 17.003906 60.777344 18.34375 53.695312 C 18.496094 52.882812 18.679688 52.050781 18.890625 51.199219 C 21.957031 51.878906 25.347656 52.371094 28.976562 52.664062 C 31.046875 55.59375 33.214844 58.285156 35.398438 60.640625 C 34.921875 61.105469 34.445312 61.546875 33.972656 61.960938 C 31.070312 64.511719 28.160156 66.324219 25.597656 67.230469 Z M 14.800781 46.734375 C 11.152344 45.480469 8.140625 43.851562 6.074219 42.070312 C 4.21875 40.476562 3.28125 38.890625 3.28125 37.601562 C 3.28125 34.863281 7.34375 31.371094 14.117188 28.996094 C 14.941406 28.707031 15.800781 28.4375 16.695312 28.179688 C 17.632812 31.242188 18.859375 34.445312 20.34375 37.679688 C 18.839844 40.964844 17.59375 44.214844 16.648438 47.316406 C 16.011719 47.132812 15.394531 46.9375 14.800781 46.734375 Z M 18.421875 21.976562 C 17.015625 14.753906 17.949219 9.304688 20.296875 7.9375 C 22.800781 6.480469 28.335938 8.558594 34.171875 13.765625 C 34.546875 14.097656 34.917969 14.445312 35.296875 14.804688 C 33.121094 17.152344 30.972656 19.824219 28.921875 22.734375 C 25.402344 23.0625 22.03125 23.589844 18.933594 24.292969 C 18.738281 23.507812 18.566406 22.734375 18.421875 21.976562 Z M 50.699219 29.988281 C 49.960938 28.703125 49.199219 27.449219 48.425781 26.226562 C 50.8125 26.53125 53.097656 26.933594 55.246094 27.425781 C 54.605469 29.503906 53.800781 31.675781 52.851562 33.902344 C 52.175781 32.609375 51.457031 31.300781 50.699219 29.988281 Z M 37.535156 17.101562 C 39.011719 18.707031 40.488281 20.5 41.941406 22.445312 C 40.476562 22.375 38.992188 22.339844 37.5 22.339844 C 36.019531 22.339844 34.550781 22.375 33.09375 22.445312 C 34.546875 20.515625 36.039062 18.726562 37.535156 17.101562 Z M 24.289062 30.011719 C 23.546875 31.300781 22.84375 32.597656 22.175781 33.902344 C 21.246094 31.679688 20.449219 29.5 19.796875 27.390625 C 21.933594 26.910156 24.210938 26.519531 26.582031 26.222656 C 25.796875 27.453125 25.03125 28.71875 24.289062 30.011719 Z M 26.648438 49.210938 C 24.199219 48.9375 21.886719 48.566406 19.753906 48.097656 C 20.414062 45.953125 21.226562 43.726562 22.179688 41.457031 C 22.847656 42.757812 23.554688 44.058594 24.300781 45.351562 C 25.058594 46.667969 25.84375 47.953125 26.648438 49.210938 Z M 37.625 58.328125 C 36.109375 56.6875 34.597656 54.867188 33.121094 52.914062 C 34.554688 52.96875 36.015625 53 37.5 53 C 39.027344 53 40.535156 52.964844 42.015625 52.898438 C 40.5625 54.886719 39.085938 56.710938 37.625 58.328125 Z M 52.882812 41.34375 C 53.882812 43.632812 54.726562 45.851562 55.398438 47.960938 C 53.226562 48.457031 50.882812 48.855469 48.414062 49.15625 C 49.195312 47.917969 49.960938 46.640625 50.714844 45.328125 C 51.476562 44 52.199219 42.667969 52.882812 41.34375 Z M 47.941406 43.722656 C 46.773438 45.761719 45.570312 47.707031 44.351562 49.542969 C 42.132812 49.703125 39.839844 49.785156 37.5 49.785156 C 35.171875 49.785156 32.90625 49.714844 30.722656 49.570312 C 29.457031 47.710938 28.230469 45.757812 27.066406 43.742188 C 25.90625 41.726562 24.839844 39.699219 23.875 37.679688 C 24.839844 35.65625 25.90625 33.625 27.058594 31.617188 C 28.210938 29.601562 29.429688 27.660156 30.6875 25.808594 C 32.910156 25.640625 35.195312 25.554688 37.5 25.554688 C 39.820312 25.554688 42.101562 25.640625 44.324219 25.8125 C 45.566406 27.648438 46.773438 29.585938 47.933594 31.597656 C 49.105469 33.636719 50.183594 35.65625 51.15625 37.636719 C 50.1875 39.648438 49.113281 41.6875 47.941406 43.722656 Z M 54.535156 7.839844 C 57.046875 9.292969 58.019531 15.148438 56.441406 22.832031 C 56.34375 23.320312 56.230469 23.820312 56.105469 24.328125 C 53.003906 23.605469 49.632812 23.070312 46.101562 22.738281 C 44.046875 19.796875 41.914062 17.121094 39.773438 14.804688 C 40.351562 14.246094 40.925781 13.71875 41.496094 13.21875 C 47.019531 8.382812 52.1875 6.476562 54.535156 7.839844 Z M 37.5 30.886719 C 41.1875 30.886719 44.183594 33.890625 44.183594 37.601562 C 44.183594 41.308594 41.1875 44.320312 37.5 44.320312 C 33.8125 44.320312 30.816406 41.308594 30.816406 37.601562 C 30.816406 33.890625 33.8125 30.886719 37.5 30.886719 Z M 37.5 30.886719 " fill-opacity="1" fill-rule="nonzero"/></svg>